<?xml version="1.0" encoding="utf-8"?>
<!-- Generator: Adobe Illustrator 22.1.0, SVG Export Plug-In . SVG Version: 6.00 Build 0)  -->
<svg version="1.1" id="Calque_1" xmlns="http://www.w3.org/2000/svg" xmlns:xlink="http://www.w3.org/1999/xlink" x="0px" y="0px"
	 viewBox="0 0 1920 1080" style="enable-background:new 0 0 1920 1080;" xml:space="preserve">
<style type="text/css">
	.st0{fill:#212121;}
	.st1{fill:none;stroke:#333333;stroke-miterlimit:10;}
	.st2{fill:none;stroke:#D64141;stroke-width:3;stroke-miterlimit:10;}
	.st3{fill:none;stroke:#FFFFFF;stroke-width:3;stroke-miterlimit:10;}
	.st4{fill:none;stroke:#FFFFFF;stroke-miterlimit:10;}
	.st5{fill:#FFFFFF;}
	.st6{font-family:'GoogleSans-Regular';}
	.st7{font-size:24px;}
	.st8{fill:none;}
	.st9{font-family:'GoogleSans-Bold';}
	.st10{font-size:43px;}
	.st11{font-size:14px;}
	.st12{font-size:16px;}
	.st13{font-family:'GoogleSans-Medium';}
	.st14{font-size:18px;}
	.st15{font-size:20px;}
	.st16{font-size:48px;}
	.st17{font-size:22px;}
	.st18{fill:#D64141;stroke:#D64141;stroke-miterlimit:10;}
	.st19{fill:#D64141;}
	.st20{font-size:11px;}
	.st21{fill:none;stroke:#FFFFFF;stroke-width:3;stroke-miterlimit:10;stroke-dasharray:12,12;}
	.st22{fill:none;stroke:#FFFFFF;stroke-width:3;stroke-miterlimit:10;stroke-dasharray:11.0556,11.0556;}
	.st23{fill:none;stroke:#FFFFFF;stroke-width:3;stroke-miterlimit:10;stroke-dasharray:11.3333,11.3333;}
	.st24{fill:none;stroke:#FFFFFF;stroke-width:3;stroke-miterlimit:10;stroke-dasharray:12.5721,12.5721;}
</style>
<g id="Calque_1_1_">
	<rect x="0.5" y="-0.5" class="st0" width="1919" height="1080"/>
</g>
<g id="Calque_2_1_">
	<line class="st1" x1="323" y1="-0.5" x2="403" y2="-0.5"/>
	<line class="st1" x1="14.5" y1="-1" x2="14.5" y2="1079"/>
	<line class="st1" x1="30.5" y1="-1" x2="30.5" y2="1079"/>
	<line class="st1" x1="46.5" y1="-1" x2="46.5" y2="1079"/>
	<line class="st1" x1="62.5" y1="-1" x2="62.5" y2="1079"/>
	<line class="st1" x1="78.5" y1="-1" x2="78.5" y2="1079"/>
	<line class="st1" x1="94.5" y1="-1" x2="94.5" y2="1079"/>
	<line class="st1" x1="110.5" y1="-1" x2="110.5" y2="1079"/>
	<line class="st1" x1="126.5" y1="-1" x2="126.5" y2="1079"/>
	<line class="st1" x1="142.5" y1="-1" x2="142.5" y2="1079"/>
	<line class="st1" x1="158.5" y1="-1" x2="158.5" y2="1079"/>
	<line class="st1" x1="174.5" y1="-1" x2="174.5" y2="1079"/>
	<line class="st1" x1="190.5" y1="-1" x2="190.5" y2="1079"/>
	<line class="st1" x1="206.5" y1="-1" x2="206.5" y2="1079"/>
	<line class="st1" x1="222.5" y1="-1" x2="222.5" y2="1079"/>
	<line class="st1" x1="238.5" y1="-1" x2="238.5" y2="1079"/>
	<line class="st1" x1="254.5" y1="-1" x2="254.5" y2="1079"/>
	<line class="st1" x1="270.5" y1="-1" x2="270.5" y2="1079"/>
	<line class="st1" x1="286.5" y1="-1" x2="286.5" y2="1079"/>
	<line class="st1" x1="302.5" y1="-1" x2="302.5" y2="1079"/>
	<line class="st1" x1="318.5" y1="-1" x2="318.5" y2="1079"/>
	<line class="st1" x1="334.5" y1="-1" x2="334.5" y2="1079"/>
	<line class="st1" x1="350.5" y1="-1" x2="350.5" y2="1079"/>
	<line class="st1" x1="366.5" y1="-1" x2="366.5" y2="1079"/>
	<line class="st1" x1="382.5" y1="-1" x2="382.5" y2="1079"/>
	<line class="st1" x1="398.5" y1="-1" x2="398.5" y2="1079"/>
	<line class="st1" x1="414.5" y1="-1" x2="414.5" y2="1079"/>
	<line class="st1" x1="430.5" y1="-1" x2="430.5" y2="1079"/>
	<line class="st1" x1="446.5" y1="-1" x2="446.5" y2="1079"/>
	<line class="st1" x1="462.5" y1="-1" x2="462.5" y2="1079"/>
	<line class="st1" x1="478.5" y1="-1" x2="478.5" y2="1079"/>
	<line class="st1" x1="494.5" y1="-1" x2="494.5" y2="1079"/>
	<line class="st1" x1="510.5" y1="-1" x2="510.5" y2="1079"/>
	<line class="st1" x1="526.5" y1="-1" x2="526.5" y2="1079"/>
	<line class="st1" x1="542.5" y1="-1" x2="542.5" y2="1079"/>
	<line class="st1" x1="558.5" y1="-1" x2="558.5" y2="1079"/>
	<line class="st1" x1="574.5" y1="-1" x2="574.5" y2="1079"/>
	<line class="st1" x1="590.5" y1="-1" x2="590.5" y2="1079"/>
	<line class="st1" x1="606.5" y1="-1" x2="606.5" y2="1079"/>
	<line class="st1" x1="622.5" y1="-1" x2="622.5" y2="1079"/>
	<line class="st1" x1="638.5" y1="-1" x2="638.5" y2="1079"/>
	<line class="st1" x1="654.5" y1="-1" x2="654.5" y2="1079"/>
	<line class="st1" x1="670.5" y1="-1" x2="670.5" y2="1079"/>
	<line class="st1" x1="686.5" y1="-1" x2="686.5" y2="1079"/>
	<line class="st1" x1="702.5" y1="-1" x2="702.5" y2="1079"/>
	<line class="st1" x1="718.5" y1="-1" x2="718.5" y2="1079"/>
	<line class="st1" x1="734.5" y1="-1" x2="734.5" y2="1079"/>
	<line class="st1" x1="750.5" y1="-1" x2="750.5" y2="1079"/>
	<line class="st1" x1="766.5" y1="-1" x2="766.5" y2="1079"/>
	<line class="st1" x1="782.5" y1="-1" x2="782.5" y2="1079"/>
	<line class="st1" x1="798.5" y1="-1" x2="798.5" y2="1079"/>
	<line class="st1" x1="814.5" y1="-1" x2="814.5" y2="1079"/>
	<line class="st1" x1="830.5" y1="-1" x2="830.5" y2="1079"/>
	<line class="st1" x1="846.5" y1="-1" x2="846.5" y2="1079"/>
	<line class="st1" x1="862.5" y1="-1" x2="862.5" y2="1079"/>
	<line class="st1" x1="878.5" y1="-1" x2="878.5" y2="1079"/>
	<line class="st1" x1="894.5" y1="-1" x2="894.5" y2="1079"/>
	<line class="st1" x1="910.5" y1="-1" x2="910.5" y2="1079"/>
	<line class="st1" x1="926.5" y1="-1" x2="926.5" y2="1079"/>
	<line class="st1" x1="942.5" y1="-1" x2="942.5" y2="1079"/>
	<line class="st1" x1="958.5" y1="-1" x2="958.5" y2="1079"/>
	<line class="st1" x1="974.5" y1="-1" x2="974.5" y2="1079"/>
	<line class="st1" x1="990.5" y1="-1" x2="990.5" y2="1079"/>
	<line class="st1" x1="1006.5" y1="-1" x2="1006.5" y2="1079"/>
	<line class="st1" x1="1022.5" y1="-1" x2="1022.5" y2="1079"/>
	<line class="st1" x1="1038.5" y1="-1" x2="1038.5" y2="1079"/>
	<line class="st1" x1="1054.5" y1="-1" x2="1054.5" y2="1079"/>
	<line class="st1" x1="1070.5" y1="-1" x2="1070.5" y2="1079"/>
	<line class="st1" x1="1086.5" y1="-1" x2="1086.5" y2="1079"/>
	<line class="st1" x1="1102.5" y1="-1" x2="1102.5" y2="1079"/>
	<line class="st1" x1="1118.5" y1="-1" x2="1118.5" y2="1079"/>
	<line class="st1" x1="1134.5" y1="-1" x2="1134.5" y2="1079"/>
	<line class="st1" x1="1150.5" y1="-1" x2="1150.5" y2="1079"/>
	<line class="st1" x1="1166.5" y1="-1" x2="1166.5" y2="1079"/>
	<line class="st1" x1="1182.5" y1="-1" x2="1182.5" y2="1079"/>
	<line class="st1" x1="1198.5" y1="-1" x2="1198.5" y2="1079"/>
	<line class="st1" x1="1214.5" y1="-1" x2="1214.5" y2="1079"/>
	<line class="st1" x1="1230.5" y1="-1" x2="1230.5" y2="1079"/>
	<line class="st1" x1="1246.5" y1="-1" x2="1246.5" y2="1079"/>
	<line class="st1" x1="1262.5" y1="-1" x2="1262.5" y2="1079"/>
	<line class="st1" x1="1278.5" y1="-1" x2="1278.5" y2="1079"/>
	<line class="st1" x1="1294.5" y1="-1" x2="1294.5" y2="1079"/>
	<line class="st1" x1="1310.5" y1="-1" x2="1310.5" y2="1079"/>
	<line class="st1" x1="1326.5" y1="-1" x2="1326.5" y2="1079"/>
	<line class="st1" x1="1342.5" y1="-1" x2="1342.5" y2="1079"/>
	<line class="st1" x1="1358.5" y1="-1" x2="1358.5" y2="1079"/>
	<line class="st1" x1="1374.5" y1="-1" x2="1374.5" y2="1079"/>
	<line class="st1" x1="1390.5" y1="-1" x2="1390.5" y2="1079"/>
	<line class="st1" x1="1406.5" y1="-1" x2="1406.5" y2="1079"/>
	<line class="st1" x1="1422.5" y1="-1" x2="1422.5" y2="1079"/>
	<line class="st1" x1="1438.5" y1="-1" x2="1438.5" y2="1079"/>
	<line class="st1" x1="1454.5" y1="-1" x2="1454.5" y2="1079"/>
	<line class="st1" x1="1470.5" y1="-1" x2="1470.5" y2="1079"/>
	<line class="st1" x1="1486.5" y1="-1" x2="1486.5" y2="1079"/>
	<line class="st1" x1="1502.5" y1="-1" x2="1502.5" y2="1079"/>
	<line class="st1" x1="1518.5" y1="-1" x2="1518.5" y2="1079"/>
	<line class="st1" x1="1534.5" y1="-1" x2="1534.5" y2="1079"/>
	<line class="st1" x1="1550.5" y1="-1" x2="1550.5" y2="1079"/>
	<line class="st1" x1="1566.5" y1="-1" x2="1566.5" y2="1079"/>
	<line class="st1" x1="1582.5" y1="-1" x2="1582.5" y2="1079"/>
	<line class="st1" x1="1598.5" y1="-1" x2="1598.5" y2="1079"/>
	<line class="st1" x1="1614.5" y1="-1" x2="1614.5" y2="1079"/>
	<line class="st1" x1="1630.5" y1="-1" x2="1630.5" y2="1079"/>
	<line class="st1" x1="1646.5" y1="-1" x2="1646.5" y2="1079"/>
	<line class="st1" x1="1662.5" y1="-1" x2="1662.5" y2="1079"/>
	<line class="st1" x1="1678.5" y1="-1" x2="1678.5" y2="1079"/>
	<line class="st1" x1="1694.5" y1="-1" x2="1694.5" y2="1079"/>
	<line class="st1" x1="1710.5" y1="-1" x2="1710.5" y2="1079"/>
	<line class="st1" x1="1726.5" y1="-1" x2="1726.5" y2="1079"/>
	<line class="st1" x1="1742.5" y1="-1" x2="1742.5" y2="1079"/>
	<line class="st1" x1="1758.5" y1="-1" x2="1758.5" y2="1079"/>
	<line class="st1" x1="1774.5" y1="-1" x2="1774.5" y2="1079"/>
	<line class="st1" x1="1790.5" y1="-1" x2="1790.5" y2="1079"/>
	<line class="st1" x1="1806.5" y1="-1" x2="1806.5" y2="1079"/>
	<line class="st1" x1="1822.5" y1="-1" x2="1822.5" y2="1079"/>
	<line class="st1" x1="1838.5" y1="-1" x2="1838.5" y2="1079"/>
	<line class="st1" x1="1854.5" y1="-1" x2="1854.5" y2="1079"/>
	<line class="st1" x1="1870.5" y1="-1" x2="1870.5" y2="1079"/>
	<line class="st1" x1="1886.5" y1="-1" x2="1886.5" y2="1079"/>
	<line class="st1" x1="1902.5" y1="-1" x2="1902.5" y2="1079"/>
	<line class="st1" x1="1920" y1="15.5" x2="0" y2="15.5"/>
	<line class="st1" x1="1920" y1="31.5" x2="0" y2="31.5"/>
	<line class="st1" x1="1920" y1="47.5" x2="0" y2="47.5"/>
	<line class="st1" x1="1920" y1="63.5" x2="0" y2="63.5"/>
	<line class="st1" x1="1920" y1="79.5" x2="0" y2="79.5"/>
	<line class="st1" x1="1920" y1="95.5" x2="0" y2="95.5"/>
	<line class="st1" x1="1920" y1="111.5" x2="0" y2="111.5"/>
	<line class="st1" x1="1920" y1="127.5" x2="0" y2="127.5"/>
	<line class="st1" x1="1920" y1="143.5" x2="0" y2="143.5"/>
	<line class="st1" x1="1920" y1="159.5" x2="0" y2="159.5"/>
	<line class="st1" x1="1920" y1="175.5" x2="0" y2="175.5"/>
	<line class="st1" x1="1920" y1="191.5" x2="0" y2="191.5"/>
	<line class="st1" x1="1920" y1="207.5" x2="0" y2="207.5"/>
	<line class="st1" x1="1920" y1="223.5" x2="0" y2="223.5"/>
	<line class="st1" x1="1920" y1="239.5" x2="0" y2="239.5"/>
	<line class="st1" x1="1920" y1="255.5" x2="0" y2="255.5"/>
	<line class="st1" x1="1920" y1="271.5" x2="0" y2="271.5"/>
	<line class="st1" x1="1920" y1="287.5" x2="0" y2="287.5"/>
	<line class="st1" x1="1920" y1="303.5" x2="0" y2="303.5"/>
	<line class="st1" x1="1920" y1="319.5" x2="0" y2="319.5"/>
	<line class="st1" x1="1920" y1="335.5" x2="0" y2="335.5"/>
	<line class="st1" x1="1920" y1="351.5" x2="0" y2="351.5"/>
	<line class="st1" x1="1920" y1="367.5" x2="0" y2="367.5"/>
	<line class="st1" x1="1920" y1="383.5" x2="0" y2="383.5"/>
	<line class="st1" x1="1920" y1="399.5" x2="0" y2="399.5"/>
	<line class="st1" x1="1920" y1="415.5" x2="0" y2="415.5"/>
	<line class="st1" x1="1920" y1="431.5" x2="0" y2="431.5"/>
	<line class="st1" x1="1920" y1="447.5" x2="0" y2="447.5"/>
	<line class="st1" x1="1920" y1="463.5" x2="0" y2="463.5"/>
	<line class="st1" x1="1920" y1="479.5" x2="0" y2="479.5"/>
	<line class="st1" x1="1920" y1="495.5" x2="0" y2="495.5"/>
	<line class="st1" x1="1920" y1="511.5" x2="0" y2="511.5"/>
	<line class="st1" x1="1920" y1="527.5" x2="0" y2="527.5"/>
	<line class="st1" x1="1920" y1="543.5" x2="0" y2="543.5"/>
	<line class="st1" x1="1920" y1="559.5" x2="0" y2="559.5"/>
	<line class="st1" x1="1920" y1="575.5" x2="0" y2="575.5"/>
	<line class="st1" x1="1920" y1="591.5" x2="0" y2="591.5"/>
	<line class="st1" x1="1920" y1="607.5" x2="0" y2="607.5"/>
	<line class="st1" x1="1920" y1="623.5" x2="0" y2="623.5"/>
	<line class="st1" x1="1920" y1="639.5" x2="0" y2="639.5"/>
	<line class="st1" x1="1920" y1="655.5" x2="0" y2="655.5"/>
	<line class="st1" x1="1920" y1="671.5" x2="0" y2="671.5"/>
	<line class="st1" x1="1920" y1="687.5" x2="0" y2="687.5"/>
	<line class="st1" x1="1920" y1="703.5" x2="0" y2="703.5"/>
	<line class="st1" x1="1920" y1="719.5" x2="0" y2="719.5"/>
	<line class="st1" x1="1920" y1="735.5" x2="0" y2="735.5"/>
	<line class="st1" x1="1920" y1="751.5" x2="0" y2="751.5"/>
	<line class="st1" x1="1920" y1="767.5" x2="0" y2="767.5"/>
	<line class="st1" x1="1920" y1="783.5" x2="0" y2="783.5"/>
	<line class="st1" x1="1920" y1="799.5" x2="0" y2="799.5"/>
	<line class="st1" x1="1920" y1="815.5" x2="0" y2="815.5"/>
	<line class="st1" x1="1920" y1="831.5" x2="0" y2="831.5"/>
	<line class="st1" x1="1920" y1="847.5" x2="0" y2="847.5"/>
	<line class="st1" x1="1920" y1="863.5" x2="0" y2="863.5"/>
	<line class="st1" x1="1920" y1="879.5" x2="0" y2="879.5"/>
	<line class="st1" x1="1920" y1="895.5" x2="0" y2="895.5"/>
	<line class="st1" x1="1920" y1="911.5" x2="0" y2="911.5"/>
	<line class="st1" x1="1920" y1="927.5" x2="0" y2="927.5"/>
	<line class="st1" x1="1920" y1="943.5" x2="0" y2="943.5"/>
	<line class="st1" x1="1920" y1="959.5" x2="0" y2="959.5"/>
	<line class="st1" x1="1920" y1="975.5" x2="0" y2="975.5"/>
	<line class="st1" x1="1920" y1="991.5" x2="0" y2="991.5"/>
	<line class="st1" x1="1920" y1="1007.5" x2="0" y2="1007.5"/>
	<line class="st1" x1="1920" y1="1023.5" x2="0" y2="1023.5"/>
	<line class="st1" x1="1920" y1="1039.5" x2="0" y2="1039.5"/>
	<line class="st1" x1="1920" y1="1055.5" x2="0" y2="1055.5"/>
	<line class="st1" x1="1920" y1="1071.5" x2="0" y2="1071.5"/>
</g>
<g id="Calque_3">
	<line class="st2" x1="206.5" y1="96" x2="206.5" y2="1179"/>
	<line class="st2" x1="1710.5" y1="96" x2="1710.5" y2="1180.5"/>
	<line class="st3" x1="1806.5" y1="192.5" x2="110.5" y2="192.5"/>
	<line class="st2" x1="798.5" y1="96" x2="798.5" y2="1177.5"/>
	<line class="st2" x1="542.5" y1="96" x2="542.5" y2="1178.5"/>
	<line class="st3" x1="110.5" y1="192.5" x2="926.5" y2="464.5"/>
	<line class="st3" x1="926.5" y1="192.5" x2="110.5" y2="464.5"/>
	<rect x="110.5" y="192.5" class="st3" width="816" height="272"/>
	<rect x="110.5" y="672.5" class="st3" width="815" height="144"/>
	<line class="st3" x1="110" y1="879.5" x2="1807" y2="879.5"/>
	<rect x="126.5" y="879.5" class="st3" width="240" height="240.5"/>
	<line class="st3" x1="126.5" y1="879.5" x2="366.5" y2="1120"/>
	<line class="st3" x1="366.5" y1="879.5" x2="126.5" y2="1120"/>
	<rect x="398.5" y="879.5" class="st3" width="240" height="240.5"/>
	<line class="st3" x1="398.5" y1="879.5" x2="638.5" y2="1120"/>
	<line class="st3" x1="638.5" y1="879.5" x2="398.5" y2="1120"/>
	<rect x="670.5" y="879.5" class="st3" width="240" height="240.5"/>
	<line class="st3" x1="670.5" y1="879.5" x2="910.5" y2="1120"/>
	<line class="st3" x1="910.5" y1="879.5" x2="670.5" y2="1120"/>
	<rect x="974.5" y="879.5" class="st3" width="544.5" height="240.5"/>
	<line class="st3" x1="974.5" y1="879.5" x2="1519" y2="1120"/>
	<line class="st3" x1="1519" y1="879.5" x2="974.5" y2="1119.5"/>
	<rect x="1550.5" y="879.5" class="st3" width="240" height="240.5"/>
	<line class="st3" x1="1550.5" y1="879.5" x2="1790.5" y2="1120"/>
	<line class="st3" x1="1790.5" y1="879.5" x2="1550.5" y2="1120"/>
	<line class="st4" x1="542.5" y1="144.5" x2="1710.5" y2="144.5"/>
	<rect x="798.5" y="688.5" class="st3" width="112" height="112"/>
	<line class="st3" x1="798.5" y1="688.5" x2="910.5" y2="800.5"/>
	<line class="st3" x1="910.5" y1="688.5" x2="798.5" y2="800.5"/>
	<circle class="st3" cx="1014.5" cy="631.5" r="32"/>
	<line class="st3" x1="925.5" y1="639.5" x2="110.5" y2="639.5"/>
</g>
<g id="Calque_4">
	<text transform="matrix(1 0 0 1 542 144)" class="st5 st6 st7">#Developer</text>
	<text transform="matrix(1 0 0 1 684 144)" class="st5 st6 st7">#Front End</text>
	<text transform="matrix(1 0 0 1 812 144)" class="st5 st6 st7">#Back End</text>
	<text transform="matrix(1 0 0 1 960 144)" class="st5 st6 st7">#Web Design</text>
	<text transform="matrix(1 0 0 1 1126 144)" class="st5 st6 st7">#Accessibility</text>
	<text transform="matrix(1 0 0 1 1295 144)" class="st5 st6 st7">#Responsive Design</text>
	<text transform="matrix(1 0 0 1 1567 144)" class="st5 st6 st7">#Material</text>
	<path class="st8" d="M127,121h47v47h-47V121z"/>
	<path class="st5" d="M132.9,156.3h35.3v-3.9h-35.3V156.3z M132.9,146.5h35.3v-3.9h-35.3V146.5z M132.9,132.8v3.9h35.3v-3.9H132.9z"
		/>
	<path class="st8" d="M1743.5,120.5h47v47h-47V120.5z"/>
	<path class="st5" d="M1773.9,147.9h-1.5l-0.5-0.5c1.9-2.2,3.1-5.1,3.1-8.3c0-7-5.7-12.7-12.7-12.7s-12.7,5.7-12.7,12.7
		s5.7,12.7,12.7,12.7c3.2,0,6.1-1.2,8.3-3.1l0.5,0.5v1.5l9.8,9.8l2.9-2.9L1773.9,147.9z M1762.1,147.9c-4.9,0-8.8-3.9-8.8-8.8
		s3.9-8.8,8.8-8.8s8.8,3.9,8.8,8.8S1767,147.9,1762.1,147.9z"/>
	<text transform="matrix(1 0 0 1 221 160)" class="st5 st9 st10">HELLOWORLD</text>
	<text transform="matrix(1 0 0 1 973 189)" class="st5 st9 st11">FR -| ENVIRONMENT</text>
	<text transform="matrix(1 0 0 1 126 495)" class="st5 st9 st12">NAHEULBEUK</text>
	<text transform="matrix(1 0 0 1 124 539)" class="st5 st13 st7">Les Nains décident de construire un nouveau tunnel de 28m à la </text>
	<text transform="matrix(1 0 0 1 124 567.8)" class="st5 st13 st7">bourgade de RilletteBourg.</text>
	<text transform="matrix(1 0 0 1 124 607)" class="st5 st6 st14">L’équipe de MégaBlock a du rassembler plus de 48 Nains afin de réaliser ce projet sur 2 jours. </text>
	<text transform="matrix(0.9101 0 0 1 126 735)" class="st5 st13 st7">Le roi fait construire une table ronde, désormais  ce seront les </text>
	<text transform="matrix(0.9101 0 0 1 126 763.7998)" class="st5 st13 st7">chevaliers de la table ronde. </text>
	<text transform="matrix(1 0 0 1 127 703)" class="st5 st9 st12">KAAMELOTT</text>
	<text transform="matrix(1 0 0 1 126 794)" class="st5 st6 st14">Heureusement, ’il n’a pas fait construire un buffet à vaisselle.</text>
	<text transform="matrix(1 0 0 1 975 240)" class="st5 st13 st15">ESPACE</text>
	<text transform="matrix(1 0 0 1 975 304)" class="st5 st9 st16">Un échange permanent !</text>
	<text transform="matrix(1 0 0 1 973 362)" class="st5 st13 st7">Lorsque vous vous connectez à ce site, celui-ci envoie un </text>
	<text transform="matrix(1 0 0 1 973 397)" class="st5 st13 st7">message codé dans la tram des fichiers du site web. </text>
	<text transform="matrix(1 0 0 1 973 432)" class="st5 st13 st7">Ces informations sont stockées sur des bandes magnétiques </text>
	<text transform="matrix(1 0 0 1 973 467)" class="st5 st13 st7">de l’ordinateur central de skynet caché sous un volcan </text>
	<text transform="matrix(1 0 0 1 973 502)" class="st5 st13 st7">et envoie à son tours un message crypté 128 bits </text>
	<text transform="matrix(1 0 0 1 973 537)" class="st5 st13 st7">au capitaine Kirk et à son ami Albator.</text>
	<text transform="matrix(1 0 0 1 1064 637)" class="st5 st13 st17">par Laurent Grimaldi</text>
</g>
<g id="Calque_5">
	<line class="st2" x1="926.5" y1="96" x2="926.5" y2="1180"/>
	<line class="st2" x1="958.5" y1="95" x2="958.5" y2="1179"/>
	<line class="st2" x1="1806.5" y1="95" x2="1806.5" y2="1179"/>
	<line class="st2" x1="110.5" y1="95" x2="110.5" y2="1179"/>
	<polygon class="st18" points="110.5,384.6 110.5,352 133,368.3 	"/>
	<polygon class="st18" points="925.5,640 925.5,672.6 903,656.3 	"/>
	<polygon class="st18" points="959.5,823.6 959.5,791 982,807.3 	"/>
	<polygon class="st18" points="1806.5,400 1806.5,432.6 1784,416.3 	"/>
	<rect x="110.5" y="823.5" class="st18" width="114" height="48"/>
	<rect x="957.5" y="683.5" class="st18" width="114" height="48"/>
	<text transform="matrix(1 0 0 1 870.5 659.4995)" class="st19 st13 st14">48</text>
	<text transform="matrix(1 0 0 1 987.5 812.4995)" class="st19 st13 st14">196</text>
	<text transform="matrix(1 0 0 1 142.5 374.4995)" class="st19 st13 st14">1080</text>
	<text transform="matrix(1 0 0 1 1742.5 420.4995)" class="st19 st13 st14">100</text>
	<text transform="matrix(1 0 0 1 129.5 837.4995)" class="st5 st13 st20">body {</text>
	<text transform="matrix(1 0 0 1 129.5 850.6995)" class="st5 st13 st20">    height : 100%;</text>
	<text transform="matrix(1 0 0 1 129.5 863.8995)" class="st5 st13 st20">}</text>
	<text transform="matrix(1 0 0 1 974.5 697.4995)" class="st5 st13 st20">content {</text>
	<text transform="matrix(1 0 0 1 974.5 710.6995)" class="st5 st13 st20">    margin : 5px;</text>
	<text transform="matrix(1 0 0 1 974.5 723.8995)" class="st5 st13 st20">}</text>
	<line class="st3" x1="110" y1="95.5" x2="1806" y2="95.5"/>
</g>
<g id="Calque_6">
	<g>
		<g>
			<line class="st3" x1="110.5" y1="-1" x2="110.5" y2="5"/>
			<line class="st21" x1="110.5" y1="17" x2="110.5" y2="83"/>
			<line class="st3" x1="110.5" y1="89" x2="110.5" y2="95"/>
		</g>
	</g>
	<g>
		<g>
			<line class="st3" x1="0" y1="95.5" x2="6" y2="95.5"/>
			<line class="st22" x1="17.1" y1="95.5" x2="100" y2="95.5"/>
			<line class="st3" x1="105.5" y1="95.5" x2="111.5" y2="95.5"/>
		</g>
	</g>
	<g>
		<g>
			<line class="st3" x1="1921" y1="95.5" x2="1915" y2="95.5"/>
			<line class="st23" x1="1903.7" y1="95.5" x2="1818.7" y2="95.5"/>
			<line class="st3" x1="1813" y1="95.5" x2="1807" y2="95.5"/>
		</g>
	</g>
	<g>
		<g>
			<line class="st3" x1="1805.5" y1="-5" x2="1805.6" y2="1"/>
			<line class="st24" x1="1805.7" y1="13.6" x2="1806.4" y2="82.7"/>
			<line class="st3" x1="1806.4" y1="89" x2="1806.5" y2="95"/>
		</g>
	</g>
	<g>
		<polygon class="st5" points="112,94.5 109.5,94.5 109.5,97 109.5,97 109.5,97 109.5,97 109.5,97 109.5,97 109.5,97 112,97 		"/>
	</g>
	<g>
		<polygon class="st5" points="1808,94.5 1805,94.5 1805,97 1808,97 		"/>
	</g>
</g>
</svg>
