<?xml version="1.0" encoding="utf-8"?>
<!-- Generator: Adobe Illustrator 22.1.0, SVG Export Plug-In . SVG Version: 6.00 Build 0)  -->
<svg version="1.1" id="Calque_1" xmlns="http://www.w3.org/2000/svg" xmlns:xlink="http://www.w3.org/1999/xlink" x="0px" y="0px"
	 viewBox="0 0 640 862" style="enable-background:new 0 0 640 862;" xml:space="preserve">
<style type="text/css">
	.st0{fill:#212121;}
	.st1{fill:none;stroke:#0062A5;stroke-miterlimit:10;}
	.st2{fill:none;stroke:#333333;stroke-miterlimit:10;}
	.st3{fill:none;stroke:#D64141;stroke-width:3;stroke-miterlimit:10;}
	.st4{fill:none;stroke:#FFFFFF;stroke-width:3;stroke-miterlimit:10;}
	.st5{fill:none;stroke:#FFFFFF;stroke-miterlimit:10;}
	.st6{fill:#FFFFFF;}
	.st7{font-family:'GoogleSans-Bold';}
	.st8{font-size:43px;}
	.st9{font-family:'GoogleSans-Regular';}
	.st10{font-size:23px;}
	.st11{font-size:15px;}
	.st12{font-family:'GoogleSans-Medium';}
	.st13{font-size:20px;}
	.st14{font-size:16px;}
	.st15{font-size:14px;}
	.st16{fill:#D64141;stroke:#D64141;stroke-miterlimit:10;}
	.st17{fill:#D64141;}
	.st18{font-size:18px;}
	.st19{fill:none;stroke:#FFFFFF;stroke-width:3;stroke-miterlimit:10;stroke-dasharray:6.6667,6.6667;}
	.st20{fill:none;stroke:#FFFFFF;stroke-width:3;stroke-miterlimit:10;stroke-dasharray:13.8,13.8;}
	.st21{fill:none;stroke:#FFFFFF;stroke-width:3;stroke-miterlimit:10;stroke-dasharray:10.8571,10.8571;}
	.st22{fill:none;stroke:#FFFFFF;stroke-width:3;stroke-miterlimit:10;stroke-dasharray:8,8;}
</style>
<g id="Calque_3">
	<rect x="0.5" y="-0.5" class="st0" width="639" height="862"/>
</g>
<g id="Calque_1_1_">
	<line class="st1" x1="-315" y1="-111.5" x2="-235" y2="-111.5"/>
	<line class="st1" x1="-623.5" y1="-112" x2="-623.5" y2="968"/>
	<line class="st1" x1="-607.5" y1="-112" x2="-607.5" y2="968"/>
	<line class="st1" x1="-591.5" y1="-112" x2="-591.5" y2="968"/>
	<line class="st1" x1="-575.5" y1="-112" x2="-575.5" y2="968"/>
	<line class="st1" x1="-559.5" y1="-112" x2="-559.5" y2="968"/>
	<line class="st1" x1="-543.5" y1="-112" x2="-543.5" y2="968"/>
	<line class="st1" x1="-527.5" y1="-112" x2="-527.5" y2="968"/>
	<line class="st1" x1="-511.5" y1="-112" x2="-511.5" y2="968"/>
	<line class="st1" x1="-495.5" y1="-112" x2="-495.5" y2="968"/>
	<line class="st1" x1="-479.5" y1="-112" x2="-479.5" y2="968"/>
	<line class="st1" x1="-463.5" y1="-112" x2="-463.5" y2="968"/>
	<line class="st1" x1="-447.5" y1="-112" x2="-447.5" y2="968"/>
	<line class="st1" x1="-431.5" y1="-112" x2="-431.5" y2="968"/>
	<line class="st1" x1="-415.5" y1="-112" x2="-415.5" y2="968"/>
	<line class="st1" x1="-399.5" y1="-112" x2="-399.5" y2="968"/>
	<line class="st1" x1="-383.5" y1="-112" x2="-383.5" y2="968"/>
	<line class="st1" x1="-367.5" y1="-112" x2="-367.5" y2="968"/>
	<line class="st1" x1="-351.5" y1="-112" x2="-351.5" y2="968"/>
	<line class="st1" x1="-335.5" y1="-112" x2="-335.5" y2="968"/>
	<line class="st1" x1="-319.5" y1="-112" x2="-319.5" y2="968"/>
	<line class="st1" x1="-303.5" y1="-112" x2="-303.5" y2="968"/>
	<line class="st1" x1="-287.5" y1="-112" x2="-287.5" y2="968"/>
	<line class="st1" x1="-271.5" y1="-112" x2="-271.5" y2="968"/>
	<line class="st1" x1="-255.5" y1="-112" x2="-255.5" y2="968"/>
	<line class="st1" x1="-239.5" y1="-112" x2="-239.5" y2="968"/>
	<line class="st1" x1="-223.5" y1="-112" x2="-223.5" y2="968"/>
	<line class="st2" x1="-207.5" y1="-112" x2="-207.5" y2="968"/>
	<line class="st2" x1="-191.5" y1="-112" x2="-191.5" y2="968"/>
	<line class="st2" x1="-175.5" y1="-112" x2="-175.5" y2="968"/>
	<line class="st2" x1="-159.5" y1="-112" x2="-159.5" y2="968"/>
	<line class="st2" x1="-143.5" y1="-112" x2="-143.5" y2="968"/>
	<line class="st2" x1="-127.5" y1="-112" x2="-127.5" y2="968"/>
	<line class="st2" x1="-111.5" y1="-112" x2="-111.5" y2="968"/>
	<line class="st2" x1="-95.5" y1="-112" x2="-95.5" y2="968"/>
	<line class="st2" x1="-79.5" y1="-112" x2="-79.5" y2="968"/>
	<line class="st2" x1="-63.5" y1="-112" x2="-63.5" y2="968"/>
	<line class="st2" x1="-47.5" y1="-112" x2="-47.5" y2="968"/>
	<line class="st2" x1="-31.5" y1="-112" x2="-31.5" y2="968"/>
	<line class="st2" x1="-15.5" y1="-112" x2="-15.5" y2="968"/>
	<line class="st2" x1="0.5" y1="-112" x2="0.5" y2="968"/>
	<line class="st2" x1="16.5" y1="-112" x2="16.5" y2="968"/>
	<line class="st2" x1="32.5" y1="-112" x2="32.5" y2="968"/>
	<line class="st2" x1="48.5" y1="-112" x2="48.5" y2="968"/>
	<line class="st2" x1="64.5" y1="-112" x2="64.5" y2="968"/>
	<line class="st2" x1="80.5" y1="-112" x2="80.5" y2="968"/>
	<line class="st2" x1="96.5" y1="-112" x2="96.5" y2="968"/>
	<line class="st2" x1="112.5" y1="-112" x2="112.5" y2="968"/>
	<line class="st2" x1="128.5" y1="-112" x2="128.5" y2="968"/>
	<line class="st2" x1="144.5" y1="-112" x2="144.5" y2="968"/>
	<line class="st2" x1="160.5" y1="-112" x2="160.5" y2="968"/>
	<line class="st2" x1="176.5" y1="-112" x2="176.5" y2="968"/>
	<line class="st2" x1="192.5" y1="-112" x2="192.5" y2="968"/>
	<line class="st2" x1="208.5" y1="-112" x2="208.5" y2="968"/>
	<line class="st2" x1="224.5" y1="-112" x2="224.5" y2="968"/>
	<line class="st2" x1="240.5" y1="-112" x2="240.5" y2="968"/>
	<line class="st2" x1="256.5" y1="-112" x2="256.5" y2="968"/>
	<line class="st2" x1="272.5" y1="-112" x2="272.5" y2="968"/>
	<line class="st2" x1="288.5" y1="-112" x2="288.5" y2="968"/>
	<line class="st2" x1="304.5" y1="-112" x2="304.5" y2="968"/>
	<line class="st2" x1="320.5" y1="-112" x2="320.5" y2="968"/>
	<line class="st2" x1="336.5" y1="-112" x2="336.5" y2="968"/>
	<line class="st2" x1="352.5" y1="-112" x2="352.5" y2="968"/>
	<line class="st2" x1="368.5" y1="-112" x2="368.5" y2="968"/>
	<line class="st2" x1="384.5" y1="-112" x2="384.5" y2="968"/>
	<line class="st2" x1="400.5" y1="-112" x2="400.5" y2="968"/>
	<line class="st2" x1="416.5" y1="-112" x2="416.5" y2="968"/>
	<line class="st2" x1="432.5" y1="-112" x2="432.5" y2="968"/>
	<line class="st2" x1="448.5" y1="-112" x2="448.5" y2="968"/>
	<line class="st2" x1="464.5" y1="-112" x2="464.5" y2="968"/>
	<line class="st2" x1="480.5" y1="-112" x2="480.5" y2="968"/>
	<line class="st2" x1="496.5" y1="-112" x2="496.5" y2="968"/>
	<line class="st2" x1="512.5" y1="-112" x2="512.5" y2="968"/>
	<line class="st2" x1="528.5" y1="-112" x2="528.5" y2="968"/>
	<line class="st2" x1="544.5" y1="-112" x2="544.5" y2="968"/>
	<line class="st2" x1="560.5" y1="-112" x2="560.5" y2="968"/>
	<line class="st2" x1="576.5" y1="-112" x2="576.5" y2="968"/>
	<line class="st2" x1="592.5" y1="-112" x2="592.5" y2="968"/>
	<line class="st2" x1="608.5" y1="-112" x2="608.5" y2="968"/>
	<line class="st2" x1="624.5" y1="-112" x2="624.5" y2="968"/>
	<line class="st2" x1="640.5" y1="-112" x2="640.5" y2="968"/>
	<line class="st2" x1="656.5" y1="-112" x2="656.5" y2="968"/>
	<line class="st2" x1="672.5" y1="-112" x2="672.5" y2="968"/>
	<line class="st2" x1="688.5" y1="-112" x2="688.5" y2="968"/>
	<line class="st2" x1="704.5" y1="-112" x2="704.5" y2="968"/>
	<line class="st2" x1="720.5" y1="-112" x2="720.5" y2="968"/>
	<line class="st2" x1="736.5" y1="-112" x2="736.5" y2="968"/>
	<line class="st2" x1="752.5" y1="-112" x2="752.5" y2="968"/>
	<line class="st2" x1="768.5" y1="-112" x2="768.5" y2="968"/>
	<line class="st2" x1="784.5" y1="-112" x2="784.5" y2="968"/>
	<line class="st2" x1="800.5" y1="-112" x2="800.5" y2="968"/>
	<line class="st2" x1="816.5" y1="-112" x2="816.5" y2="968"/>
	<line class="st2" x1="832.5" y1="-112" x2="832.5" y2="968"/>
	<line class="st2" x1="848.5" y1="-112" x2="848.5" y2="968"/>
	<line class="st2" x1="864.5" y1="-112" x2="864.5" y2="968"/>
	<line class="st2" x1="880.5" y1="-112" x2="880.5" y2="968"/>
	<line class="st2" x1="896.5" y1="-112" x2="896.5" y2="968"/>
	<line class="st2" x1="912.5" y1="-112" x2="912.5" y2="968"/>
	<line class="st2" x1="928.5" y1="-112" x2="928.5" y2="968"/>
	<line class="st2" x1="944.5" y1="-112" x2="944.5" y2="968"/>
	<line class="st2" x1="960.5" y1="-112" x2="960.5" y2="968"/>
	<line class="st1" x1="976.5" y1="-112" x2="976.5" y2="968"/>
	<line class="st1" x1="992.5" y1="-112" x2="992.5" y2="968"/>
	<line class="st1" x1="1008.5" y1="-112" x2="1008.5" y2="968"/>
	<line class="st1" x1="1024.5" y1="-112" x2="1024.5" y2="968"/>
	<line class="st1" x1="1040.5" y1="-112" x2="1040.5" y2="968"/>
	<line class="st1" x1="1056.5" y1="-112" x2="1056.5" y2="968"/>
	<line class="st2" x1="1072.5" y1="-112" x2="1072.5" y2="968"/>
	<line class="st2" x1="1088.5" y1="-112" x2="1088.5" y2="968"/>
	<line class="st2" x1="1104.5" y1="-112" x2="1104.5" y2="968"/>
	<line class="st2" x1="1120.5" y1="-112" x2="1120.5" y2="968"/>
	<line class="st2" x1="1136.5" y1="-112" x2="1136.5" y2="968"/>
	<line class="st2" x1="1152.5" y1="-112" x2="1152.5" y2="968"/>
	<line class="st2" x1="1168.5" y1="-112" x2="1168.5" y2="968"/>
	<line class="st1" x1="1184.5" y1="-112" x2="1184.5" y2="968"/>
	<line class="st1" x1="1200.5" y1="-112" x2="1200.5" y2="968"/>
	<line class="st1" x1="1216.5" y1="-112" x2="1216.5" y2="968"/>
	<line class="st1" x1="1232.5" y1="-112" x2="1232.5" y2="968"/>
	<line class="st1" x1="1248.5" y1="-112" x2="1248.5" y2="968"/>
	<line class="st1" x1="1264.5" y1="-112" x2="1264.5" y2="968"/>
	<line class="st2" x1="1282" y1="0.5" x2="-638" y2="0.5"/>
	<line class="st2" x1="1282" y1="16.5" x2="-638" y2="16.5"/>
	<line class="st2" x1="1282" y1="32.5" x2="-638" y2="32.5"/>
	<line class="st2" x1="1282" y1="48.5" x2="-638" y2="48.5"/>
	<line class="st2" x1="1282" y1="64.5" x2="-638" y2="64.5"/>
	<line class="st2" x1="1282" y1="80.5" x2="-638" y2="80.5"/>
	<line class="st2" x1="1282" y1="96.5" x2="-638" y2="96.5"/>
	<line class="st2" x1="1282" y1="112.5" x2="-638" y2="112.5"/>
	<line class="st2" x1="1282" y1="128.5" x2="-638" y2="128.5"/>
	<line class="st2" x1="1282" y1="144.5" x2="-638" y2="144.5"/>
	<line class="st2" x1="1282" y1="160.5" x2="-638" y2="160.5"/>
	<line class="st2" x1="1282" y1="176.5" x2="-638" y2="176.5"/>
	<line class="st2" x1="1282" y1="192.5" x2="-638" y2="192.5"/>
	<line class="st2" x1="1282" y1="208.5" x2="-638" y2="208.5"/>
	<line class="st2" x1="1282" y1="224.5" x2="-638" y2="224.5"/>
	<line class="st2" x1="1282" y1="240.5" x2="-638" y2="240.5"/>
	<line class="st2" x1="1282" y1="256.5" x2="-638" y2="256.5"/>
	<line class="st2" x1="1282" y1="272.5" x2="-638" y2="272.5"/>
	<line class="st2" x1="1282" y1="288.5" x2="-638" y2="288.5"/>
	<line class="st2" x1="1282" y1="304.5" x2="-638" y2="304.5"/>
	<line class="st2" x1="1282" y1="320.5" x2="-638" y2="320.5"/>
	<line class="st2" x1="1282" y1="336.5" x2="-638" y2="336.5"/>
	<line class="st2" x1="1282" y1="352.5" x2="-638" y2="352.5"/>
	<line class="st2" x1="1282" y1="368.5" x2="-638" y2="368.5"/>
	<line class="st2" x1="1282" y1="384.5" x2="-638" y2="384.5"/>
	<line class="st2" x1="1282" y1="400.5" x2="-638" y2="400.5"/>
	<line class="st2" x1="1282" y1="416.5" x2="-638" y2="416.5"/>
	<line class="st2" x1="1282" y1="432.5" x2="-638" y2="432.5"/>
	<line class="st2" x1="1282" y1="448.5" x2="-638" y2="448.5"/>
	<line class="st2" x1="1282" y1="464.5" x2="-638" y2="464.5"/>
	<line class="st2" x1="1282" y1="480.5" x2="-638" y2="480.5"/>
	<line class="st2" x1="1282" y1="496.5" x2="-638" y2="496.5"/>
	<line class="st2" x1="1282" y1="512.5" x2="-638" y2="512.5"/>
	<line class="st2" x1="1282" y1="528.5" x2="-638" y2="528.5"/>
	<line class="st2" x1="1282" y1="544.5" x2="-638" y2="544.5"/>
	<line class="st2" x1="1282" y1="560.5" x2="-638" y2="560.5"/>
	<line class="st2" x1="1282" y1="576.5" x2="-638" y2="576.5"/>
	<line class="st2" x1="1282" y1="592.5" x2="-638" y2="592.5"/>
	<line class="st2" x1="1282" y1="608.5" x2="-638" y2="608.5"/>
	<line class="st2" x1="1282" y1="624.5" x2="-638" y2="624.5"/>
	<line class="st2" x1="1282" y1="640.5" x2="-638" y2="640.5"/>
	<line class="st2" x1="1282" y1="656.5" x2="-638" y2="656.5"/>
	<line class="st2" x1="1282" y1="672.5" x2="-638" y2="672.5"/>
	<line class="st2" x1="1282" y1="688.5" x2="-638" y2="688.5"/>
	<line class="st2" x1="1282" y1="704.5" x2="-638" y2="704.5"/>
	<line class="st2" x1="1282" y1="720.5" x2="-638" y2="720.5"/>
	<line class="st2" x1="1282" y1="736.5" x2="-638" y2="736.5"/>
	<line class="st2" x1="1282" y1="752.5" x2="-638" y2="752.5"/>
	<line class="st2" x1="1282" y1="768.5" x2="-638" y2="768.5"/>
	<line class="st2" x1="1282" y1="784.5" x2="-638" y2="784.5"/>
	<line class="st2" x1="1282" y1="800.5" x2="-638" y2="800.5"/>
	<line class="st2" x1="1282" y1="816.5" x2="-638" y2="816.5"/>
	<line class="st2" x1="1282" y1="832.5" x2="-638" y2="832.5"/>
	<line class="st2" x1="1282" y1="848.5" x2="-638" y2="848.5"/>
	<line class="st2" x1="1282" y1="864.5" x2="-638" y2="864.5"/>
	<line class="st3" x1="97" y1="80" x2="97" y2="1163"/>
	<line class="st3" x1="545" y1="80" x2="545" y2="1163"/>
</g>
<g id="Calque_2_1_">
	<line class="st4" x1="32.5" y1="80.5" x2="608.5" y2="80.5"/>
	<line class="st4" x1="32.5" y1="80" x2="32.5" y2="877.5"/>
	<line class="st5" x1="608.5" y1="80" x2="608.5" y2="877.5"/>
	<line class="st4" x1="32" y1="144.5" x2="608.5" y2="144.5"/>
	<path class="st6" d="M47.9,124.3h35.3v-3.9H47.9V124.3z M47.9,114.5h35.3v-3.9H47.9V114.5z M47.9,100.8v3.9h35.3v-3.9H47.9z"/>
	<text transform="matrix(1 0 0 1 113 128)" class="st6 st7 st8">HELLOWORLD</text>
	<path class="st6" d="M583.5,116h-1.3l-0.5-0.5c1.7-1.9,2.7-4.4,2.7-7.1c0-6.1-4.9-11-11-11s-11,4.9-11,11s4.9,11,11,11
		c2.7,0,5.2-1,7.1-2.7l0.5,0.5v1.3l8.4,8.4l2.5-2.5L583.5,116z M573.4,116c-4.2,0-7.6-3.4-7.6-7.6s3.4-7.6,7.6-7.6s7.6,3.4,7.6,7.6
		S577.6,116,573.4,116z"/>
	<line class="st4" x1="32.5" y1="144.5" x2="608.5" y2="400.5"/>
	<line class="st4" x1="32.5" y1="400.5" x2="608.5" y2="144.5"/>
	<line class="st4" x1="32" y1="400.5" x2="608.5" y2="400.5"/>
	<text transform="matrix(1 0 0 1 65 448)" class="st6 st9 st10">#Developer</text>
	<text transform="matrix(1 0 0 1 225 448)" class="st6 st9 st10">#Front End</text>
	<text transform="matrix(1 0 0 1 385 448)" class="st6 st9 st10">#Back End</text>
	<text transform="matrix(1 0 0 1 65 496)" class="st6 st9 st10">#Web Design</text>
	<text transform="matrix(1 0 0 1 225 496)" class="st6 st9 st10">#Accessibility</text>
	<text transform="matrix(1 0 0 1 385 496)" class="st6 st9 st10">#Responsive Design</text>
	<text transform="matrix(1 0 0 1 65 544)" class="st6 st9 st10">#Material</text>
	<line class="st5" x1="32" y1="576.5" x2="608.5" y2="576.5"/>
	<text transform="matrix(1 0 0 1 48 613)" class="st6 st7 st11">NAHEULBEUK</text>
	<text transform="matrix(1 0 0 1 48 646)" class="st6 st12 st13">Les Nains décident de construire un nouveau tunnel de </text>
	<text transform="matrix(1 0 0 1 48 670)" class="st6 st12 st13">28m à la bourgade de RilletteBourg.</text>
	<text transform="matrix(1 0 0 1 48 704)" class="st6 st9 st14">L’équipe de MégaBlock a du rassembler plus de 48 Nains afin de réaliser </text>
	<text transform="matrix(1 0 0 1 48 723.2)" class="st6 st9 st14">ce projet sur 2 jours. </text>
	<line class="st4" x1="34" y1="752.5" x2="608.5" y2="752.5"/>
	<text transform="matrix(1 0 0 1 53 800)" class="st6 st7 st15">KAAMELOTT</text>
	<text transform="matrix(1 0 0 1 49 832)" class="st6 st12 st13">Le roi fait construire une table ronde , désormais ce seront </text>
	<text transform="matrix(1 0 0 1 49 856)" class="st6 st12 st13">les chevaliers de la table ronde. </text>
	<line class="st3" x1="608.5" y1="80" x2="608.5" y2="1164"/>
	<polygon class="st16" points="608.5,288 608.5,320.6 586,304.3 	"/>
	<text transform="matrix(1 0 0 1 536.5 312.4995)" class="st17 st12 st18">100</text>
	<polygon class="st16" points="33.5,288.6 33.5,256 56,272.3 	"/>
	<text transform="matrix(1 0 0 1 70.5 278.4995)" class="st17 st12 st18">45</text>
	<line class="st3" x1="32.5" y1="144.5" x2="32.5" y2="400.5"/>
	<line class="st3" x1="33" y1="576.5" x2="608.5" y2="576.5"/>
	<polygon class="st16" points="369,576.5 336.5,576.5 352.7,554 	"/>
	<text transform="matrix(1 0 0 1 341.5 544.4995)" class="st17 st12 st18">90</text>
	<g>
		<g>
			<line class="st4" x1="32.5" y1="80.5" x2="26.5" y2="80.5"/>
			<line class="st19" x1="19.8" y1="80.5" x2="9.8" y2="80.5"/>
			<line class="st4" x1="6.5" y1="80.5" x2="0.5" y2="80.5"/>
		</g>
	</g>
	<g>
		<g>
			<line class="st4" x1="32.5" y1="-0.5" x2="32.5" y2="5.5"/>
			<line class="st20" x1="32.5" y1="19.3" x2="32.5" y2="67.6"/>
			<line class="st4" x1="32.5" y1="74.5" x2="32.5" y2="80.5"/>
		</g>
	</g>
	<g>
		<g>
			<line class="st4" x1="608.5" y1="80.5" x2="608.5" y2="74.5"/>
			<line class="st21" x1="608.5" y1="63.6" x2="608.5" y2="3.9"/>
			<line class="st4" x1="608.5" y1="-1.5" x2="608.5" y2="-7.5"/>
		</g>
	</g>
	<g>
		<g>
			<line class="st4" x1="642.5" y1="80.5" x2="636.5" y2="80.5"/>
			<line class="st22" x1="628.5" y1="80.5" x2="616.5" y2="80.5"/>
			<line class="st4" x1="612.5" y1="80.5" x2="606.5" y2="80.5"/>
		</g>
	</g>
</g>
</svg>
